<svg width="55" height="55" viewBox="0 0 55 55" fill="none" xmlns="http://www.w3.org/2000/svg">
<circle cx="27.3325" cy="27.4712" r="26.2778" fill="#65645A" stroke="url(#paint0_linear_40_1165)"/>
<path d="M27.9722 21.7332H24.7843C24.6037 21.7332 24.4523 21.672 24.3301 21.5497C24.2079 21.4273 24.1468 21.2757 24.1468 21.0948C24.1468 20.9139 24.2079 20.7626 24.3301 20.6408C24.4523 20.519 24.6037 20.4581 24.7843 20.4581H27.9722V17.2703C27.9722 17.0896 28.0334 16.9382 28.1557 16.816C28.2781 16.6938 28.4297 16.6327 28.6106 16.6327C28.7915 16.6327 28.9428 16.6938 29.0646 16.816C29.1864 16.9382 29.2473 17.0896 29.2473 17.2703V20.4581H32.4351C32.6158 20.4581 32.7672 20.5193 32.8894 20.6416C33.0116 20.764 33.0727 20.9156 33.0727 21.0965C33.0727 21.2774 33.0116 21.4288 32.8894 21.5505C32.7672 21.6723 32.6158 21.7332 32.4351 21.7332H29.2473V24.9211C29.2473 25.1017 29.1861 25.2531 29.0637 25.3753C28.9414 25.4975 28.7898 25.5586 28.6089 25.5586C28.428 25.5586 28.2766 25.4975 28.1549 25.3753C28.0331 25.2531 27.9722 25.1017 27.9722 24.9211V21.7332ZM22.6264 41.6449C22.0886 41.6449 21.6353 41.4606 21.2667 41.092C20.898 40.7233 20.7137 40.2701 20.7137 39.7322C20.7137 39.1944 20.898 38.7411 21.2667 38.3725C21.6353 38.0038 22.0886 37.8195 22.6264 37.8195C23.1643 37.8195 23.6175 38.0038 23.9862 38.3725C24.3548 38.7411 24.5391 39.1944 24.5391 39.7322C24.5391 40.2701 24.3548 40.7233 23.9862 41.092C23.6175 41.4606 23.1643 41.6449 22.6264 41.6449ZM34.593 41.6449C34.0552 41.6449 33.602 41.4606 33.2333 41.092C32.8647 40.7233 32.6803 40.2701 32.6803 39.7322C32.6803 39.1944 32.8647 38.7411 33.2333 38.3725C33.602 38.0038 34.0552 37.8195 34.593 37.8195C35.1309 37.8195 35.5841 38.0038 35.9528 38.3725C36.3214 38.7411 36.5058 39.1944 36.5058 39.7322C36.5058 40.2701 36.3214 40.7233 35.9528 41.092C35.5841 41.4606 35.1309 41.6449 34.593 41.6449ZM18.1634 19.183H16.496C16.3153 19.183 16.1639 19.1218 16.0417 18.9994C15.9195 18.8771 15.8584 18.7254 15.8584 18.5445C15.8584 18.3636 15.9195 18.2123 16.0417 18.0905C16.1639 17.9687 16.3153 17.9078 16.496 17.9078H18.3267C18.5301 17.9078 18.7152 17.9588 18.8819 18.0607C19.0487 18.1626 19.1737 18.307 19.2571 18.4939L24.2032 28.8936H32.6632C32.8103 28.8936 32.9411 28.8568 33.0555 28.7832C33.17 28.7097 33.2681 28.6075 33.3498 28.4767L37.6288 20.7769C37.6861 20.6788 37.7622 20.6011 37.8573 20.5439C37.9523 20.4867 38.058 20.4581 38.1742 20.4581C38.4171 20.4581 38.5995 20.5631 38.7213 20.7732C38.8431 20.9833 38.8443 21.1946 38.725 21.4071L34.4361 29.1732C34.2514 29.4838 34.0111 29.7273 33.7154 29.9039C33.4196 30.0805 33.0958 30.1687 32.7441 30.1687H23.6367L22.0869 33.0132C21.9562 33.2094 21.9521 33.4219 22.0747 33.6508C22.1973 33.8797 22.3812 33.9941 22.6264 33.9941H35.8682C36.0488 33.9941 36.2003 34.0553 36.3225 34.1777C36.4447 34.3 36.5058 34.4517 36.5058 34.6325C36.5058 34.8134 36.4447 34.9648 36.3225 35.0866C36.2003 35.2084 36.0488 35.2693 35.8682 35.2693H22.6264C21.8826 35.2693 21.3264 34.957 20.9577 34.3325C20.589 33.708 20.5813 33.077 20.9344 32.4394L22.852 29.0211L18.1634 19.183Z" fill="#D1A757"/>
<defs>
<linearGradient id="paint0_linear_40_1165" x1="54.1103" y1="0.693366" x2="-7.57467" y2="14.0503" gradientUnits="userSpaceOnUse">
<stop stop-color="#EFCE76"/>
<stop offset="0.385" stop-color="#835A27"/>
<stop offset="0.725" stop-color="#C09852"/>
<stop offset="1" stop-color="#F4E285"/>
</linearGradient>
</defs>
</svg>
