<svg width="42" height="42" viewBox="0 0 42 42" fill="none" xmlns="http://www.w3.org/2000/svg">
<path d="M39.48 6.71973H2.52C1.13064 6.71973 0 7.85036 0 9.23973V32.7597C0 34.1491 1.13064 35.2797 2.52 35.2797H39.48C40.8694 35.2797 42 34.1491 42 32.7597V9.23973C42 7.85036 40.8694 6.71973 39.48 6.71973ZM40.32 32.7597C40.32 33.2217 39.942 33.5997 39.48 33.5997H2.52C2.05636 33.5997 1.68 33.2217 1.68 32.7597V9.23973C1.68 8.776 2.05636 8.39973 2.52 8.39973H39.48C39.942 8.39973 40.32 8.776 40.32 9.23973V32.7597Z" fill="#D1A757" fill-opacity="0.6"/>
<path d="M41.1598 14.2803H0.839844V17.6403H41.1598V14.2803Z" fill="#D1A757" fill-opacity="0.6"/>
<path d="M41.16 13.4404H0.84C0.376359 13.4404 0 13.8167 0 14.2804V17.6404C0 18.1042 0.376359 18.4804 0.84 18.4804H41.16C41.6236 18.4804 42 18.1042 42 17.6404V14.2804C42 13.8167 41.6236 13.4404 41.16 13.4404ZM40.32 16.8004H1.68V15.1204H40.32V16.8004Z" fill="#D1A757" fill-opacity="0.6"/>
<path d="M22.6807 23.5195H7.5607C7.09706 23.5195 6.7207 23.8959 6.7207 24.3595C6.7207 24.8232 7.09706 25.1995 7.5607 25.1995H22.6807C23.1443 25.1995 23.5207 24.8232 23.5207 24.3595C23.5207 23.8958 23.1443 23.5195 22.6807 23.5195Z" fill="#D1A757" fill-opacity="0.6"/>
<path d="M15.9607 26.8799H7.5607C7.09706 26.8799 6.7207 27.2562 6.7207 27.7199C6.7207 28.1835 7.09706 28.5599 7.5607 28.5599H15.9607C16.4243 28.5599 16.8007 28.1835 16.8007 27.7199C16.8007 27.2562 16.4243 26.8799 15.9607 26.8799Z" fill="#D1A757" fill-opacity="0.6"/>
</svg>
