<svg width="18" height="18" viewBox="0 0 18 18" fill="none" xmlns="http://www.w3.org/2000/svg">
<g clip-path="url(#clip0_2_6266)">
<path d="M16.5378 14.7688H4.75545C4.61058 14.7688 4.5485 14.5785 4.66196 14.4911L6.30211 13.2305H15.6736C16.3399 13.2305 16.8925 12.6828 16.9055 12.0175L17.0105 6.61267C17.0225 5.99652 16.5713 5.46151 15.961 5.37029C15.6674 5.32637 15.3925 5.52824 15.3485 5.82226C15.3045 6.11628 15.5073 6.38987 15.8016 6.43387C15.8781 6.44529 15.9346 6.51175 15.9331 6.58874L15.8281 11.9966C15.8265 12.0798 15.7572 12.1537 15.6737 12.1537H6.54691L4.84671 4.80279L5.70966 4.92859C6.00387 4.97243 6.27819 4.76825 6.32223 4.47424C6.36623 4.18022 6.16336 3.90543 5.86903 3.86143L4.57646 3.66787L4.08234 1.74711C4.02123 1.50901 3.80648 1.34668 3.56046 1.34668H1.46264C1.16508 1.34668 0.923828 1.58782 0.923828 1.8851C0.923828 2.18239 1.16504 2.42353 1.46264 2.42353H3.14241L5.51559 12.4659L4.00381 13.6305C3.09176 14.3333 3.60472 15.8457 4.75541 15.8457H6.16986C6.10724 15.9995 6.07286 16.1957 6.07286 16.3882C6.07286 17.2789 6.80262 18.0004 7.69964 18.0004C8.59665 18.0004 9.32641 17.2804 9.32641 16.3897C9.32641 16.1972 9.29203 15.9995 9.22941 15.8457H12.1721C12.1095 15.9995 12.0751 16.1957 12.0751 16.3882C12.0751 17.2789 12.8049 18.0004 13.7019 18.0004C14.5989 18.0004 15.3287 17.2804 15.3287 16.3897C15.3287 16.1972 15.2943 15.9995 15.2317 15.8457H16.5379C16.8355 15.8457 17.0767 15.6046 17.0767 15.3073C17.0767 15.01 16.8354 14.7688 16.5378 14.7688ZM7.69964 16.9208C7.39681 16.9208 7.15048 16.6792 7.15048 16.3822C7.15048 16.0852 7.39685 15.8437 7.69964 15.8437C8.00246 15.8437 8.24883 16.0852 8.24883 16.3822C8.24883 16.6792 8.00246 16.9208 7.69964 16.9208ZM13.7018 16.9208C13.399 16.9208 13.1527 16.6792 13.1527 16.3822C13.1527 16.0852 13.3991 15.8437 13.7018 15.8437C14.0047 15.8437 14.251 16.0852 14.251 16.3822C14.251 16.6792 14.0047 16.9208 13.7018 16.9208Z" fill="#CBC9C1"/>
<path d="M10.7775 7.80416C8.61975 7.80416 6.86426 6.0537 6.86426 3.90208C6.86426 1.75046 8.61975 0 10.7775 0C12.9353 0 14.6908 1.75046 14.6908 3.90208C14.6908 6.0537 12.9353 7.80416 10.7775 7.80416ZM10.7775 1.07662C9.21394 1.07662 7.94188 2.34411 7.94188 3.90208C7.94188 5.46005 9.21398 6.72754 10.7775 6.72754C12.3411 6.72754 13.6132 5.46005 13.6132 3.90208C13.6132 2.34411 12.3411 1.07662 10.7775 1.07662Z" fill="#CBC9C1"/>
<path d="M9.82313 5.27263L8.95769 4.24558C8.76605 4.01817 8.79521 3.67858 9.02284 3.48709C9.25044 3.29561 9.5903 3.32472 9.78202 3.5522L10.2575 4.11651L11.737 2.54454C11.9408 2.32798 12.2819 2.31748 12.4986 2.52112C12.7154 2.72476 12.7259 3.06547 12.5221 3.28203L10.6278 5.2947C10.4587 5.4728 10.0257 5.50807 9.82313 5.27263Z" fill="#CBC9C1"/>
</g>
<defs>
<clipPath id="clip0_2_6266">
<rect width="18" height="18" fill="white"/>
</clipPath>
</defs>
</svg>
