<svg width="100" height="100" viewBox="0 0 100 100" fill="none" xmlns="http://www.w3.org/2000/svg">
<g clip-path="url(#clip0_2_1230)">
<path d="M71.696 36.638C70.071 35.011 67.4293 35.011 65.8043 36.638L47.9168 54.5235L40.446 47.0547C38.821 45.4276 36.1793 45.4276 34.5543 47.0547C32.9272 48.6818 32.9272 51.3193 34.5543 52.9464L44.971 63.363C45.7835 64.1776 46.8501 64.5839 47.9168 64.5839C48.9835 64.5839 50.0501 64.1776 50.8626 63.363L71.696 42.5297C73.323 40.9026 73.323 38.2651 71.696 36.638Z" fill="url(#paint0_linear_2_1230)"/>
<path d="M95.8333 45.8333C93.5333 45.8333 91.6667 47.7 91.6667 50C91.6667 72.975 72.975 91.6667 50 91.6667C27.025 91.6667 8.33333 72.975 8.33333 50C8.33333 27.025 27.025 8.33333 50 8.33333C61.1854 8.33333 71.6854 12.7042 79.5687 20.6417C81.1875 22.2771 83.8271 22.2854 85.4604 20.6625C87.0938 19.0417 87.1021 16.4042 85.4812 14.7708C76.0229 5.24583 63.4208 0 50 0C22.4292 0 0 22.4292 0 50C0 77.5708 22.4292 100 50 100C77.5708 100 100 77.5708 100 50C100 47.7 98.1333 45.8333 95.8333 45.8333Z" fill="url(#paint1_linear_2_1230)"/>
</g>
<defs>
<linearGradient id="paint0_linear_2_1230" x1="72.9163" y1="35.4177" x2="28.9821" y2="48.3285" gradientUnits="userSpaceOnUse">
<stop stop-color="#EFCE76"/>
<stop offset="0.385" stop-color="#835A27"/>
<stop offset="0.725" stop-color="#C09852"/>
<stop offset="1" stop-color="#F4E285"/>
</linearGradient>
<linearGradient id="paint1_linear_2_1230" x1="100" y1="1.30808e-05" x2="-15.1793" y2="24.9403" gradientUnits="userSpaceOnUse">
<stop stop-color="#EFCE76"/>
<stop offset="0.385" stop-color="#835A27"/>
<stop offset="0.725" stop-color="#C09852"/>
<stop offset="1" stop-color="#F4E285"/>
</linearGradient>
<clipPath id="clip0_2_1230">
<rect width="100" height="100" fill="white"/>
</clipPath>
</defs>
</svg>
