<svg width="13" height="13" viewBox="0 0 13 13" fill="none" xmlns="http://www.w3.org/2000/svg">
<g clip-path="url(#clip0_2_6276)">
<path d="M5.01038 4.33337H0.947884C0.425194 4.33337 0 3.90817 0 3.38538V0.947884C0 0.425194 0.425194 0 0.947884 0H5.01038C5.53317 0 5.95837 0.425194 5.95837 0.947884V3.38538C5.95837 3.90817 5.53317 4.33337 5.01038 4.33337ZM0.947884 0.8125C0.873199 0.8125 0.8125 0.873199 0.8125 0.947884V3.38538C0.8125 3.46017 0.873199 3.52087 0.947884 3.52087H5.01038C5.08517 3.52087 5.14587 3.46017 5.14587 3.38538V0.947884C5.14587 0.873199 5.08517 0.8125 5.01038 0.8125H0.947884Z" fill="#D1A757"/>
<path d="M5.01038 13.0004H0.947884C0.425194 13.0004 0 12.5752 0 12.0525V6.36497C0 5.84219 0.425194 5.41699 0.947884 5.41699H5.01038C5.53317 5.41699 5.95837 5.84219 5.95837 6.36497V12.0525C5.95837 12.5752 5.53317 13.0004 5.01038 13.0004ZM0.947884 6.22949C0.873199 6.22949 0.8125 6.29019 0.8125 6.36497V12.0525C0.8125 12.1272 0.873199 12.1879 0.947884 12.1879H5.01038C5.08517 12.1879 5.14587 12.1272 5.14587 12.0525V6.36497C5.14587 6.29019 5.08517 6.22949 5.01038 6.22949H0.947884Z" fill="#D1A757"/>
<path d="M12.0525 13.0004H7.98997C7.46719 13.0004 7.04199 12.5752 7.04199 12.0525V9.61497C7.04199 9.09219 7.46719 8.66699 7.98997 8.66699H12.0525C12.5752 8.66699 13.0004 9.09219 13.0004 9.61497V12.0525C13.0004 12.5752 12.5752 13.0004 12.0525 13.0004ZM7.98997 9.47949C7.91519 9.47949 7.85449 9.54019 7.85449 9.61497V12.0525C7.85449 12.1272 7.91519 12.1879 7.98997 12.1879H12.0525C12.1272 12.1879 12.1879 12.1272 12.1879 12.0525V9.61497C12.1879 9.54019 12.1272 9.47949 12.0525 9.47949H7.98997Z" fill="#D1A757"/>
<path d="M12.0525 7.58337H7.98997C7.46719 7.58337 7.04199 7.15817 7.04199 6.63538V0.947884C7.04199 0.425194 7.46719 0 7.98997 0H12.0525C12.5752 0 13.0004 0.425194 13.0004 0.947884V6.63538C13.0004 7.15817 12.5752 7.58337 12.0525 7.58337ZM7.98997 0.8125C7.91519 0.8125 7.85449 0.873199 7.85449 0.947884V6.63538C7.85449 6.71017 7.91519 6.77087 7.98997 6.77087H12.0525C12.1272 6.77087 12.1879 6.71017 12.1879 6.63538V0.947884C12.1879 0.873199 12.1272 0.8125 12.0525 0.8125H7.98997Z" fill="#D1A757"/>
</g>
<defs>
<clipPath id="clip0_2_6276">
<rect width="13" height="13" fill="white"/>
</clipPath>
</defs>
</svg>
