<svg width="26" height="26" viewBox="0 0 26 26" fill="none" xmlns="http://www.w3.org/2000/svg">
<path d="M15.168 2.70825H10.8346C10.4037 2.70825 9.99033 2.87946 9.68559 3.1842C9.38084 3.48895 9.20964 3.90228 9.20964 4.33325V5.41659H4.33464C4.19098 5.41659 4.0532 5.47365 3.95162 5.57524C3.85004 5.67682 3.79297 5.81459 3.79297 5.95825C3.79297 6.10191 3.85004 6.23969 3.95162 6.34127C4.0532 6.44285 4.19098 6.49992 4.33464 6.49992H4.92505L6.4038 21.3091C6.44869 21.7028 6.63587 22.0665 6.93014 22.3318C7.22442 22.5972 7.6055 22.7459 8.00172 22.7499H18.0009C18.3962 22.7446 18.7759 22.5953 19.0691 22.3301C19.3622 22.0648 19.5486 21.7019 19.5934 21.3091L21.0776 6.49992H21.668C21.8116 6.49992 21.9494 6.44285 22.051 6.34127C22.1526 6.23969 22.2096 6.10191 22.2096 5.95825C22.2096 5.81459 22.1526 5.67682 22.051 5.57524C21.9494 5.47365 21.8116 5.41659 21.668 5.41659H16.793V4.33325C16.793 3.90228 16.6218 3.48895 16.317 3.1842C16.0123 2.87946 15.5989 2.70825 15.168 2.70825ZM10.293 4.33325C10.293 4.18959 10.35 4.05182 10.4516 3.95024C10.5532 3.84865 10.691 3.79159 10.8346 3.79159H15.168C15.3116 3.79159 15.4494 3.84865 15.551 3.95024C15.6526 4.05182 15.7096 4.18959 15.7096 4.33325V5.41659H10.293V4.33325ZM19.9888 6.49992L18.5155 21.2008C18.4971 21.3309 18.432 21.4499 18.3323 21.5356C18.2327 21.6213 18.1052 21.6679 17.9738 21.6666H8.00172C7.87028 21.6679 7.74286 21.6213 7.6432 21.5356C7.54354 21.4499 7.47845 21.3309 7.46005 21.2008L6.01922 6.49992H19.9888Z" fill="#BAA06F"/>
<path d="M13.0026 20.0415C13.1463 20.0415 13.284 19.9844 13.3856 19.8829C13.4872 19.7813 13.5443 19.6435 13.5443 19.4998V9.20817C13.5443 9.06451 13.4872 8.92674 13.3856 8.82515C13.284 8.72357 13.1463 8.6665 13.0026 8.6665C12.8589 8.6665 12.7212 8.72357 12.6196 8.82515C12.518 8.92674 12.4609 9.06451 12.4609 9.20817V19.4998C12.4609 19.6435 12.518 19.7813 12.6196 19.8829C12.7212 19.9844 12.8589 20.0415 13.0026 20.0415Z" fill="#BAA06F"/>
<path d="M9.7526 18.9582C9.89626 18.9582 10.034 18.9011 10.1356 18.7995C10.2372 18.6979 10.2943 18.5602 10.2943 18.4165V10.8332C10.2943 10.6895 10.2372 10.5517 10.1356 10.4502C10.034 10.3486 9.89626 10.2915 9.7526 10.2915C9.60895 10.2915 9.47117 10.3486 9.36959 10.4502C9.26801 10.5517 9.21094 10.6895 9.21094 10.8332V18.4165C9.21094 18.5602 9.26801 18.6979 9.36959 18.7995C9.47117 18.9011 9.60895 18.9582 9.7526 18.9582Z" fill="#BAA06F"/>
<path d="M16.2526 18.9582C16.3963 18.9582 16.534 18.9011 16.6356 18.7995C16.7372 18.6979 16.7943 18.5602 16.7943 18.4165V10.8332C16.7943 10.6895 16.7372 10.5517 16.6356 10.4502C16.534 10.3486 16.3963 10.2915 16.2526 10.2915C16.1089 10.2915 15.9712 10.3486 15.8696 10.4502C15.768 10.5517 15.7109 10.6895 15.7109 10.8332V18.4165C15.7109 18.5602 15.768 18.6979 15.8696 18.7995C15.9712 18.9011 16.1089 18.9582 16.2526 18.9582Z" fill="#BAA06F"/>
</svg>
