<svg width="31" height="31" viewBox="0 0 31 31" fill="none" xmlns="http://www.w3.org/2000/svg">
<path d="M27.5176 12.672H26.5011V12.6196H15.1437V17.6673H22.2755C21.2351 20.6057 18.4393 22.7151 15.1437 22.7151C10.9623 22.7151 7.57214 19.3249 7.57214 15.1435C7.57214 10.9621 10.9623 7.57189 15.1437 7.57189C17.0738 7.57189 18.8298 8.30003 20.1668 9.4894L23.7362 5.92003C21.4824 3.81954 18.4677 2.52417 15.1437 2.52417C8.17471 2.52417 2.52441 8.17447 2.52441 15.1435C2.52441 22.1125 8.17471 27.7628 15.1437 27.7628C22.1127 27.7628 27.763 22.1125 27.763 15.1435C27.763 14.2974 27.676 13.4714 27.5176 12.672Z" fill="#FFC107"/>
<path d="M3.97852 9.26982L8.12459 12.3104C9.24645 9.53294 11.9634 7.57189 15.1428 7.57189C17.0729 7.57189 18.8289 8.30003 20.1659 9.4894L23.7353 5.92003C21.4815 3.81954 18.4667 2.52417 15.1428 2.52417C10.2957 2.52417 6.09225 5.26067 3.97852 9.26982Z" fill="#FF3D00"/>
<path d="M15.1435 27.7623C18.4031 27.7623 21.3648 26.5149 23.6041 24.4863L19.6985 21.1813C18.3889 22.1772 16.7887 22.7159 15.1435 22.7146C11.8612 22.7146 9.07426 20.6217 8.02434 17.7009L3.90918 20.8715C5.99768 24.9583 10.239 27.7623 15.1435 27.7623Z" fill="#4CAF50"/>
<path d="M27.5174 12.6715H26.5009V12.6191H15.1436V17.6669H22.2754C21.7777 19.0653 20.8811 20.2874 19.6966 21.182L19.6985 21.1807L23.6042 24.4857C23.3278 24.7368 27.7629 21.4527 27.7629 15.143C27.7629 14.2969 27.6758 13.4709 27.5174 12.6715Z" fill="#1976D2"/>
</svg>
