<svg width="530" height="494" viewBox="0 0 530 494" fill="none" xmlns="http://www.w3.org/2000/svg">
<g opacity="0.5" filter="url(#filter0_f_19_1092)">
<g style="mix-blend-mode:multiply">
<path opacity="0.05" d="M130.248 96.1561L299.898 57.6715C303.668 56.8243 308.188 56.9433 311.805 58.0307C313.864 58.6209 315.767 59.4922 317.655 60.7222C322.337 63.8675 325.588 68.606 326.799 74.049L390.963 356.275C392.237 361.936 391.346 367.866 388.192 372.909C385.117 377.811 380.231 381.343 374.576 382.614L204.848 421.239C201.078 422.086 196.559 421.967 192.941 420.88C190.882 420.29 188.979 419.419 187.091 418.188C182.409 415.043 179.158 410.305 177.947 404.862L113.642 122.558C112.368 116.896 113.26 110.967 116.413 105.924C119.489 101.022 124.375 97.4896 130.03 96.2188L130.248 96.1561Z" fill="url(#paint0_linear_19_1092)"/>
<path opacity="0.1" d="M130.529 96.3128L299.744 57.9536C303.295 57.169 308.033 57.2254 311.51 58.235C313.569 58.8252 315.472 59.6964 317.22 60.8486C321.839 63.7756 325.09 68.514 326.442 74.0349L390.606 356.261C391.88 361.922 390.925 367.633 387.849 372.536C384.774 377.438 379.965 380.83 374.388 381.96L205.174 420.319C201.622 421.104 196.885 421.047 193.407 420.038C191.349 419.448 189.446 418.576 187.698 417.424C183.079 414.497 179.828 409.759 178.617 404.316L114.375 122.23C113.101 116.569 114.055 110.858 117.131 105.955C120.207 101.053 125.015 97.6615 130.592 96.5311L130.529 96.3128Z" fill="url(#paint1_linear_19_1092)"/>
<path opacity="0.14" d="M130.95 96.5452L299.588 58.2336C302.999 57.3712 308.096 57.4427 311.433 58.3745C313.491 58.9646 315.472 59.6954 317.22 60.8476C321.839 63.7746 325.167 68.3725 326.379 73.8156L390.543 356.042C391.754 361.485 390.799 367.196 387.801 371.958C384.803 376.72 380.213 380.048 374.558 381.319L205.921 419.631C202.509 420.493 197.413 420.422 194.076 419.49C192.018 418.9 190.037 418.169 188.289 417.017C183.67 414.09 180.341 409.492 179.13 404.049L114.966 121.823C113.755 116.38 114.709 110.669 117.707 105.907C120.705 101.145 125.296 97.8161 130.95 96.5452Z" fill="url(#paint2_linear_19_1092)"/>
<path opacity="0.19" d="M131.232 96.7013L299.434 58.515C302.627 57.7153 308.019 57.5836 311.138 58.5781C313.196 59.1683 315.036 59.8211 317.002 60.9107C321.699 63.6972 325.028 68.2951 326.239 73.7381L390.403 355.964C391.614 361.407 390.597 366.9 387.817 371.599C385.037 376.298 380.306 379.549 374.87 380.758L206.668 418.944C203.475 419.744 198.083 419.875 194.964 418.881C192.906 418.291 191.065 417.638 189.099 416.548C184.403 413.762 181.074 409.164 179.863 403.721L115.699 121.495C114.487 116.052 115.505 110.559 118.285 105.86C121.065 101.16 125.796 97.9095 131.232 96.7013Z" fill="url(#paint3_linear_19_1092)"/>
<path opacity="0.24" d="M131.652 96.9344L299.418 58.8735C302.393 58.1365 308.144 58.0199 311.059 58.7182C312.977 59.2306 315.036 59.8208 316.861 60.8325C321.635 63.4785 324.964 68.0764 326.175 73.5195L390.339 355.745C391.628 361.048 390.611 366.541 387.768 371.022C384.925 375.503 380.413 378.691 375.117 379.977L207.351 418.038C204.376 418.775 198.625 418.891 195.71 418.193C193.792 417.681 191.733 417.091 189.908 416.079C185.134 413.433 181.805 408.835 180.594 403.392L116.43 121.166C115.141 115.863 116.158 110.371 119.001 105.89C121.843 101.409 126.356 98.2204 131.652 96.9344Z" fill="url(#paint4_linear_19_1092)"/>
<path opacity="0.29" d="M131.934 97.0902L299.124 59.0768C302.021 58.4803 307.927 58.0827 310.842 58.781C312.76 59.2934 314.819 59.8836 316.644 60.8953C321.278 63.4635 324.825 67.9987 326.036 73.4418L390.2 355.668C391.349 360.892 390.409 366.245 387.644 370.585C384.801 375.066 380.506 378.192 375.288 379.337L208.099 417.351C205.201 417.947 199.296 418.345 196.38 417.646C194.462 417.134 192.404 416.544 190.578 415.532C185.944 412.964 182.397 408.429 181.186 402.986L117.022 120.76C115.874 115.535 116.813 110.183 119.578 105.842C122.421 101.361 126.716 98.2357 131.934 97.0902Z" fill="url(#paint5_linear_19_1092)"/>
<path opacity="0.33" d="M132.215 97.2459L298.891 59.4984C301.57 58.9646 307.912 58.4416 310.469 59.1248C312.387 59.6372 314.523 60.0869 316.208 61.0208C320.842 63.5889 324.466 67.9837 325.678 73.4267L389.842 355.653C391.068 360.737 390.065 365.871 387.441 370.289C384.816 374.707 380.381 377.755 375.38 378.838L208.705 416.585C206.026 417.119 199.684 417.642 197.127 416.959C195.209 416.447 193.073 415.997 191.247 414.985C186.613 412.417 182.989 408.022 181.778 402.579L117.754 120.431C116.528 115.347 117.53 110.213 120.155 105.795C122.92 101.454 127.215 98.3288 132.215 97.2459Z" fill="url(#paint6_linear_19_1092)"/>
<path opacity="0.38" d="M132.637 97.4791L298.735 59.7791C301.274 59.1675 307.834 58.5819 310.251 59.1872C312.247 59.5591 314.165 60.0715 316.068 60.9427C320.779 63.3704 324.404 67.7651 325.474 73.1303L389.639 355.356C390.724 360.363 389.94 365.434 387.252 369.634C384.565 373.834 380.348 376.819 375.488 377.98L209.389 415.68C206.85 416.291 200.29 416.877 197.873 416.271C195.878 415.9 193.96 415.387 192.057 414.516C187.345 412.088 183.861 407.771 182.65 402.328L118.268 120.165C117.182 115.159 117.966 110.087 120.654 105.888C123.341 101.688 127.559 98.7025 132.419 97.5418L132.637 97.4791Z" fill="url(#paint7_linear_19_1092)"/>
<path opacity="0.43" d="M132.917 97.6346L298.58 60.06C300.901 59.511 307.819 58.9406 310.033 59.2498C312.028 59.6216 314.024 59.9935 315.927 60.8647C320.716 63.1519 324.2 67.4688 325.411 72.9118L389.576 355.138C390.739 360.004 389.814 364.997 387.204 369.057C384.594 373.116 380.518 376.179 375.658 377.34L209.995 414.914C207.674 415.463 200.756 416.034 198.542 415.724C196.546 415.353 194.551 414.981 192.648 414.109C187.859 411.822 184.375 407.505 183.163 402.062L118.999 119.836C117.836 114.971 118.761 109.977 121.371 105.918C123.98 101.858 128.057 98.7953 132.917 97.6346Z" fill="url(#paint8_linear_19_1092)"/>
<path opacity="0.48" d="M133.415 97.7275L298.502 60.2004C300.605 59.7141 307.819 58.9405 309.955 59.3902C311.95 59.762 314.023 59.9934 315.708 60.9273C320.357 63.1366 324.059 67.3909 325.27 72.8339L389.435 355.06C390.457 359.848 389.61 364.701 387 368.76C384.391 372.82 380.391 375.742 375.609 376.762L210.523 414.289C208.42 414.776 201.206 415.549 199.07 415.1C197.074 414.728 195.001 414.496 193.316 413.563C188.668 411.353 184.965 407.099 183.754 401.656L119.73 119.508C118.708 114.72 119.555 109.867 122.165 105.807C124.774 101.748 128.774 98.8255 133.556 97.8053L133.415 97.7275Z" fill="url(#paint9_linear_19_1092)"/>
<path opacity="0.52" d="M133.698 97.8833L298.348 60.4815C300.232 60.0579 307.883 59.1589 309.738 59.453C311.733 59.8248 313.806 60.0562 315.569 60.8496C320.295 62.9184 323.998 67.1726 325.209 72.6157L389.373 354.842C390.473 359.489 389.486 364.264 387.094 368.261C384.702 372.258 380.781 375.04 375.998 376.06L211.348 413.462C209.464 413.885 201.813 414.784 199.958 414.49C197.963 414.118 195.89 413.887 194.127 413.094C189.401 411.025 185.698 406.771 184.487 401.327L120.323 119.101C119.223 114.454 120.21 109.679 122.602 105.682C125.134 101.763 128.915 98.9034 133.698 97.8833Z" fill="url(#paint10_linear_19_1092)"/>
<path opacity="0.57" d="M133.977 98.0388L297.973 60.8251C299.64 60.4641 307.586 59.362 309.223 59.7187C311.218 60.0906 313.229 60.1036 315.132 60.9748C319.858 63.0437 323.638 67.1574 324.849 72.6004L389.013 354.826C389.973 359.396 389.204 364.109 386.749 367.887C384.295 371.665 380.514 374.525 375.949 375.483L211.953 412.696C210.287 413.057 202.341 414.159 200.704 413.803C198.708 413.431 196.698 413.418 194.795 412.547C190.068 410.478 186.289 406.364 185.218 400.999L121.054 118.773C120.094 114.203 120.863 109.491 123.318 105.712C125.772 101.934 129.553 99.0741 134.118 98.1166L133.977 98.0388Z" fill="url(#paint11_linear_19_1092)"/>
<path opacity="0.62" d="M134.4 98.2723L297.96 61.184C299.408 60.8857 307.79 59.6582 309.147 59.8593C311.142 60.2311 313.153 60.2442 314.993 60.8971C319.797 62.8254 323.577 66.9391 324.647 72.3044L388.812 354.53C389.849 358.96 389.017 363.454 386.562 367.232C384.185 370.87 380.482 373.589 376.058 374.625L212.498 411.713C211.05 412.011 202.668 413.239 201.311 413.038C199.316 412.666 197.305 412.653 195.465 412C190.661 410.071 186.881 405.958 185.811 400.593L121.646 118.367C120.609 113.937 121.441 109.443 123.896 105.665C126.273 102.027 129.976 99.3076 134.4 98.2723Z" fill="url(#paint12_linear_19_1092)"/>
<path opacity="0.67" d="M134.68 98.4273L297.663 61.3865C298.972 61.0104 307.649 59.5797 308.928 59.9213C311.016 59.7938 313.012 60.1657 314.852 60.8186C319.733 62.6064 323.513 66.7201 324.584 72.0854L388.748 354.311C389.786 358.741 388.891 363.016 386.654 366.732C384.277 370.37 380.792 373.027 376.368 374.062L213.385 411.103C212.076 411.479 203.399 412.91 202.12 412.568C200.032 412.695 198.037 412.324 196.196 411.671C191.315 409.883 187.613 405.629 186.464 400.404L122.378 118.037C121.34 113.608 122.235 109.332 124.472 105.617C126.849 101.979 130.334 99.3221 134.68 98.4273Z" fill="url(#paint13_linear_19_1092)"/>
<path opacity="0.71" d="M135.101 98.6611L297.649 61.7456C298.739 61.4322 307.712 59.7983 308.773 60.2026C310.861 60.0751 312.716 60.3691 314.697 61.0998C319.438 62.8099 323.218 66.9236 324.506 72.2261L388.671 354.452C389.645 358.663 388.891 363.017 386.591 366.514C384.433 370.089 380.807 372.668 376.601 373.641L214.054 410.556C212.963 410.87 203.99 412.503 202.93 412.099C200.842 412.227 198.986 411.933 197.006 411.202C192.265 409.492 188.485 405.378 187.196 400.076L123.109 117.709C122.135 113.498 122.889 109.145 125.189 105.647C127.347 102.072 130.973 99.4932 135.179 98.5206L135.101 98.6611Z" fill="url(#paint14_linear_19_1092)"/>
<path opacity="0.76" d="M135.382 98.8159L297.352 61.948C297.352 61.948 307.494 59.8602 308.414 60.1866C310.361 59.9814 312.435 60.2127 314.275 60.8656C319.094 62.4351 322.874 66.5488 324.162 71.8514L388.326 354.077C389.301 358.288 388.484 362.424 386.262 365.78C384.041 369.137 380.773 371.731 376.567 372.704L214.597 409.572C214.597 409.572 204.456 411.66 203.535 411.333C201.588 411.539 199.515 411.307 197.674 410.654C192.855 409.085 189.076 404.971 187.787 399.668L123.623 117.442C122.648 113.231 123.465 109.096 125.687 105.739C127.768 102.305 131.176 99.7885 135.382 98.8159Z" fill="url(#paint15_linear_19_1092)"/>
<path opacity="0.81" d="M135.664 98.9716L297.12 62.3696C297.12 62.3696 307.48 60.2191 308.259 60.4677C310.207 60.2624 312.28 60.4938 314.198 61.0062C319.017 62.5757 322.874 66.5489 324.163 71.8515L388.327 354.077C389.239 358.07 388.422 362.205 386.418 365.499C384.415 368.794 381.007 371.31 377.019 372.22L215.562 408.822C215.562 408.822 205.203 410.972 204.423 410.724C202.476 410.929 200.403 410.698 198.485 410.185C193.666 408.616 189.808 404.642 188.519 399.34L124.355 117.114C123.443 113.121 124.261 108.986 126.264 105.692C128.268 102.398 131.676 99.8816 135.664 98.9716Z" fill="url(#paint16_linear_19_1092)"/>
<path opacity="0.86" d="M136.162 99.0647L297.183 62.588C297.183 62.588 307.62 60.297 308.181 60.6083C310.206 60.2625 312.28 60.4939 314.198 61.0062C319.094 62.4352 322.952 66.4085 324.1 71.6332L388.264 353.859C389.176 357.852 388.296 361.769 386.37 364.922C384.366 368.217 381.114 370.452 377.266 371.439L216.246 407.916C216.246 407.916 205.809 410.207 205.247 409.896C203.222 410.242 201.149 410.01 199.231 409.498C194.334 408.069 190.477 404.096 189.328 398.871L124.946 116.708C124.034 112.715 124.914 108.798 126.84 105.644C128.844 102.35 132.097 100.115 135.944 99.1274L136.162 99.0647Z" fill="url(#paint17_linear_19_1092)"/>
<path opacity="0.9" d="M136.443 99.2202L296.887 62.7911C296.887 62.7911 307.464 60.5779 307.823 60.593C309.848 60.2472 311.858 60.2603 313.699 60.9132C318.455 62.2643 322.53 66.1749 323.679 71.3996L387.843 353.626C388.692 357.4 388.03 361.254 385.964 364.33C383.897 367.406 380.925 369.797 377.015 370.566L216.571 406.995C216.571 406.995 205.994 409.208 205.635 409.193C203.61 409.539 201.6 409.526 199.759 408.873C195.003 407.522 190.928 403.611 189.779 398.387L125.678 116.379C124.829 112.605 125.491 108.751 127.557 105.675C129.624 102.599 132.595 100.208 136.506 99.4386L136.443 99.2202Z" fill="url(#paint18_linear_19_1092)"/>
<path opacity="0.95" d="M136.863 99.4533L296.871 63.1495C296.871 63.1495 307.526 60.7958 307.744 60.7331C309.77 60.3873 311.78 60.4004 313.698 60.9127C318.532 62.1234 322.685 65.8935 323.756 71.2587L387.92 353.485C388.769 357.259 388.044 360.895 386.196 363.908C384.347 366.921 381.235 369.234 377.465 370.081L217.457 406.385C217.457 406.385 206.802 408.739 206.584 408.802C204.559 409.147 202.549 409.134 200.631 408.622C195.797 407.411 191.644 403.641 190.573 398.276L126.409 116.05C125.56 112.276 126.285 108.64 128.133 105.627C129.981 102.613 133.094 100.301 136.863 99.4533Z" fill="url(#paint19_linear_19_1092)"/>
<path d="M307.428 61.0213L137.285 99.6812C130.031 101.33 125.488 108.558 127.139 115.827L191.247 397.994C192.899 405.262 200.118 409.818 207.373 408.17L377.516 369.51C384.771 367.861 389.314 360.633 387.662 353.365L323.554 71.197C321.903 63.9286 314.683 59.3728 307.428 61.0213Z" fill="url(#paint20_linear_19_1092)"/>
</g>
<path d="M307.427 61.0219L137.285 99.6808C130.031 101.329 125.488 108.558 127.14 115.826L191.249 397.995C192.9 405.263 200.12 409.819 207.375 408.171L377.516 369.512C384.771 367.863 389.314 360.635 387.662 353.366L323.553 71.1978C321.901 63.9294 314.682 59.3735 307.427 61.0219Z" fill="url(#paint21_linear_19_1092)"/>
<g style="mix-blend-mode:multiply" opacity="0.5">
<path d="M377.269 368.354L206.968 407.024C199.788 408.734 192.578 404.188 190.943 396.858L191.257 397.949C192.97 405.139 200.179 409.685 207.282 408.116L377.583 369.445C384.764 367.736 389.299 360.523 387.726 353.411L387.412 352.32C389.126 359.509 384.59 366.722 377.269 368.354Z" fill="#BDA688"/>
</g>
<g style="mix-blend-mode:screen" opacity="0.5">
<path d="M307.499 60.9364L137.199 99.6068C130.018 101.316 125.482 108.529 127.055 115.641L127.369 116.733C125.656 109.543 130.191 102.33 137.513 100.698L307.595 62.0907C314.776 60.3811 321.985 64.9272 323.621 72.2572L323.307 71.1656C321.594 63.9761 314.384 59.43 307.281 60.999L307.499 60.9364Z" fill="#918069"/>
</g>
<path d="M161.348 149.185C161.348 149.185 160.058 150.855 158.32 154.664C156.8 158.41 156.198 160.829 156.198 160.829C156.198 160.829 154.901 159.193 151.575 156.249C148.39 153.382 146.627 152.589 146.627 152.589C146.627 152.589 147.932 150.559 149.422 147.53C151.097 143.503 151.777 140.944 151.777 140.944C151.777 140.944 153.137 142.799 156.463 145.743C159.304 148.235 161.27 149.325 161.27 149.325L161.348 149.185Z" fill="#940306"/>
<path d="M147.124 132.119L147.259 137.517L144.58 138.051L143.668 111.484L147.874 110.512L158.568 134.975L155.671 135.572L153.432 130.661L146.983 132.042L147.124 132.119ZM146.869 129.592L152.524 128.322L146.354 114.258L146.869 129.592Z" fill="#940306"/>
<path d="M353.356 320.008C353.356 320.008 354.646 318.337 356.383 314.528C357.903 310.782 358.506 308.363 358.506 308.363C358.506 308.363 359.803 309.999 363.128 312.944C366.314 315.81 368.076 316.604 368.076 316.604C368.076 316.604 366.771 318.633 365.281 321.662C363.607 325.689 362.926 328.248 362.926 328.248C362.926 328.248 361.566 326.394 358.241 323.449C355.399 320.957 353.433 319.867 353.433 319.867L353.356 320.008Z" fill="#940306"/>
<path d="M367.439 336.995L367.303 331.597L369.982 331.064L370.894 357.63L366.689 358.603L355.994 334.139L358.891 333.543L361.13 338.454L367.579 337.073L367.439 336.995ZM367.693 339.522L362.039 340.793L368.208 354.857L367.693 339.522Z" fill="#940306"/>
<path d="M296.178 225.74C296.178 225.74 289.62 234.953 280.732 255.354C272.077 275.335 269.406 287.803 269.406 287.803C269.406 287.803 262.67 278.748 244.919 263.403C228.073 248.745 218.525 243.452 218.525 243.452C218.525 243.452 225.563 233.038 232.713 216.445C242.082 194.841 245.078 181.452 245.078 181.452C245.078 181.452 252.298 190.959 270.393 206.678C285.365 219.748 295.96 225.803 295.96 225.803L296.178 225.74Z" fill="#940306"/>
</g>
<defs>
<filter id="filter0_f_19_1092" x="-25" y="-25" width="580" height="544" filterUnits="userSpaceOnUse" color-interpolation-filters="sRGB">
<feFlood flood-opacity="0" result="BackgroundImageFix"/>
<feBlend mode="normal" in="SourceGraphic" in2="BackgroundImageFix" result="shape"/>
<feGaussianBlur stdDeviation="12.5" result="effect1_foregroundBlur_19_1092"/>
</filter>
<linearGradient id="paint0_linear_19_1092" x1="166.432" y1="408.565" x2="339.144" y2="71.8755" gradientUnits="userSpaceOnUse">
<stop stop-color="#FCFBF9"/>
<stop offset="1" stop-color="#FCFBF9"/>
</linearGradient>
<linearGradient id="paint1_linear_19_1092" x1="172.237" y1="411.719" x2="334.066" y2="69.0026" gradientUnits="userSpaceOnUse">
<stop stop-color="#F9F7F4"/>
<stop offset="1" stop-color="#F9F7F4"/>
</linearGradient>
<linearGradient id="paint2_linear_19_1092" x1="178.343" y1="414.141" x2="328.675" y2="66.0125" gradientUnits="userSpaceOnUse">
<stop stop-color="#F6F2EE"/>
<stop offset="1" stop-color="#F6F2EE"/>
</linearGradient>
<linearGradient id="paint3_linear_19_1092" x1="184.297" y1="414.817" x2="322.337" y2="62.5047" gradientUnits="userSpaceOnUse">
<stop stop-color="#F2EEE8"/>
<stop offset="1" stop-color="#F2EEE8"/>
</linearGradient>
<linearGradient id="paint4_linear_19_1092" x1="189.539" y1="413.647" x2="314.726" y2="58.4621" gradientUnits="userSpaceOnUse">
<stop stop-color="#EFEAE3"/>
<stop offset="1" stop-color="#EFEAE3"/>
</linearGradient>
<linearGradient id="paint5_linear_19_1092" x1="199.124" y1="422.165" x2="312.124" y2="61.4609" gradientUnits="userSpaceOnUse">
<stop stop-color="#ECE6DD"/>
<stop offset="1" stop-color="#ECE6DD"/>
</linearGradient>
<linearGradient id="paint6_linear_19_1092" x1="203.197" y1="416.492" x2="302.453" y2="55.2486" gradientUnits="userSpaceOnUse">
<stop stop-color="#E9E1D7"/>
<stop offset="1" stop-color="#E9E1D7"/>
</linearGradient>
<linearGradient id="paint7_linear_19_1092" x1="212.486" y1="422.308" x2="298.585" y2="58.1536" gradientUnits="userSpaceOnUse">
<stop stop-color="#E6DDD2"/>
<stop offset="1" stop-color="#E6DDD2"/>
</linearGradient>
<linearGradient id="paint8_linear_19_1092" x1="221.596" y1="426.741" x2="294.275" y2="60.7339" gradientUnits="userSpaceOnUse">
<stop stop-color="#E3D9CC"/>
<stop offset="1" stop-color="#E3D9CC"/>
</linearGradient>
<linearGradient id="paint9_linear_19_1092" x1="221.753" y1="411.385" x2="280.105" y2="49.0963" gradientUnits="userSpaceOnUse">
<stop stop-color="#E0D5C6"/>
<stop offset="1" stop-color="#E0D5C6"/>
</linearGradient>
<linearGradient id="paint10_linear_19_1092" x1="228.211" y1="409.946" x2="272.981" y2="48.8764" gradientUnits="userSpaceOnUse">
<stop stop-color="#DCD0C1"/>
<stop offset="1" stop-color="#DCD0C1"/>
</linearGradient>
<linearGradient id="paint11_linear_19_1092" x1="243.801" y1="425.513" x2="275.425" y2="63.0544" gradientUnits="userSpaceOnUse">
<stop stop-color="#D9CCBB"/>
<stop offset="1" stop-color="#D9CCBB"/>
</linearGradient>
<linearGradient id="paint12_linear_19_1092" x1="248.421" y1="419.071" x2="266.675" y2="60.5199" gradientUnits="userSpaceOnUse">
<stop stop-color="#D6C8B5"/>
<stop offset="1" stop-color="#D6C8B5"/>
</linearGradient>
<linearGradient id="paint13_linear_19_1092" x1="250.69" y1="409.144" x2="256.01" y2="55.7435" gradientUnits="userSpaceOnUse">
<stop stop-color="#D3C4B0"/>
<stop offset="1" stop-color="#D3C4B0"/>
</linearGradient>
<linearGradient id="paint14_linear_19_1092" x1="263.618" y1="418.215" x2="256.396" y2="67.4878" gradientUnits="userSpaceOnUse">
<stop stop-color="#D0BFAA"/>
<stop offset="1" stop-color="#D0BFAA"/>
</linearGradient>
<linearGradient id="paint15_linear_19_1092" x1="262.177" y1="400.863" x2="242.983" y2="57.7609" gradientUnits="userSpaceOnUse">
<stop stop-color="#CDBBA4"/>
<stop offset="1" stop-color="#CDBBA4"/>
</linearGradient>
<linearGradient id="paint16_linear_19_1092" x1="271.547" y1="404.374" x2="240.88" y2="66.3632" gradientUnits="userSpaceOnUse">
<stop stop-color="#CAB79F"/>
<stop offset="1" stop-color="#CAB79F"/>
</linearGradient>
<linearGradient id="paint17_linear_19_1092" x1="279.761" y1="405.099" x2="238.144" y2="73.1711" gradientUnits="userSpaceOnUse">
<stop stop-color="#C6B399"/>
<stop offset="1" stop-color="#C6B399"/>
</linearGradient>
<linearGradient id="paint18_linear_19_1092" x1="285.884" y1="402.765" x2="234.026" y2="77.8696" gradientUnits="userSpaceOnUse">
<stop stop-color="#C3AE93"/>
<stop offset="1" stop-color="#C3AE93"/>
</linearGradient>
<linearGradient id="paint19_linear_19_1092" x1="290.311" y1="397.292" x2="228.983" y2="80.3428" gradientUnits="userSpaceOnUse">
<stop stop-color="#C0AA8E"/>
<stop offset="1" stop-color="#C0AA8E"/>
</linearGradient>
<linearGradient id="paint20_linear_19_1092" x1="292.409" y1="388.683" x2="222.315" y2="80.1961" gradientUnits="userSpaceOnUse">
<stop stop-color="#BDA688"/>
<stop offset="1" stop-color="#BDA688"/>
</linearGradient>
<linearGradient id="paint21_linear_19_1092" x1="292.41" y1="388.684" x2="222.316" y2="80.1957" gradientUnits="userSpaceOnUse">
<stop stop-color="#D1AA5E"/>
<stop offset="0.04" stop-color="#CDA04D"/>
<stop offset="0.09" stop-color="#CA963C"/>
<stop offset="0.13" stop-color="#C99336"/>
<stop offset="0.21" stop-color="#CF9E44"/>
<stop offset="0.58" stop-color="#E9D181"/>
<stop offset="0.76" stop-color="#F4E59A"/>
<stop offset="0.82" stop-color="#F2E296"/>
<stop offset="0.88" stop-color="#EFDC8B"/>
<stop offset="0.94" stop-color="#E9D278"/>
<stop offset="0.99" stop-color="#E1C35F"/>
<stop offset="1" stop-color="#E0C15A"/>
</linearGradient>
</defs>
</svg>
