<svg width="15" height="16" viewBox="0 0 15 16" fill="none" xmlns="http://www.w3.org/2000/svg">
<path d="M13.9933 7L14.9932 7.00997L14.991 9.00997L13.9911 9L13.9933 7ZM0.291529 8.57055C-0.0985442 8.17613 -0.0978431 7.54297 0.293095 7.15633L6.66379 0.85581C7.05472 0.469179 7.68786 0.47549 8.07793 0.869906C8.468 1.26432 8.4673 1.89749 8.07636 2.28412L2.41353 7.88459L8.06384 13.5978C8.45391 13.9922 8.45321 14.6254 8.06227 15.012C7.67133 15.3987 7.0382 15.3924 6.64813 14.9979L0.291529 8.57055ZM13.9911 9L0.998276 8.87049L1.00049 6.87049L13.9933 7L13.9911 9Z" fill="#E7B960"/>
</svg>
