<svg width="20" height="20" viewBox="0 0 20 20" fill="none" xmlns="http://www.w3.org/2000/svg">
<g clip-path="url(#clip0_2_6236)">
<path d="M10.0005 0C6.29437 0 3.2793 3.01508 3.2793 6.72117C3.2793 8.16531 3.7302 9.54117 4.58328 10.7005L9.67555 18.26C9.74836 18.3681 9.87016 18.4329 10.0005 18.4329C10.1308 18.4329 10.2526 18.3681 10.3254 18.26L15.4177 10.7006C16.2707 9.54117 16.7216 8.16535 16.7216 6.72121C16.7216 3.01508 13.7066 0 10.0005 0ZM14.7805 10.2444C14.7756 10.2511 14.7708 10.258 14.7662 10.2652L10.0005 17.3399L5.23551 10.2663C5.23074 10.2588 5.2257 10.2516 5.22043 10.2444C4.46312 9.21875 4.06285 8.00047 4.06285 6.72113C4.06285 3.44715 6.72648 0.783555 10.0005 0.783555C13.2745 0.783555 15.9381 3.44719 15.9381 6.72117C15.9381 8.00047 15.5378 9.21879 14.7805 10.2444Z" fill="#CBC9C1"/>
<path d="M12.7428 6.28832C12.5264 6.28832 12.3511 6.46371 12.3511 6.68008C12.3511 7.97621 11.2966 9.0307 10.0004 9.0307C8.7043 9.0307 7.6498 7.97621 7.6498 6.68008C7.6498 5.38395 8.7043 4.32945 10.0004 4.32945C10.4715 4.32945 10.9259 4.4682 11.3145 4.73066C11.4938 4.8518 11.7373 4.80465 11.8584 4.62535C11.9795 4.44609 11.9324 4.20254 11.7531 4.08141C11.2345 3.73109 10.6284 3.5459 10.0004 3.5459C8.27219 3.5459 6.86621 4.95188 6.86621 6.68008C6.86621 8.40828 8.27219 9.81426 10.0004 9.81426C11.7286 9.81426 13.1346 8.40828 13.1346 6.68008C13.1346 6.46371 12.9592 6.28832 12.7428 6.28832Z" fill="#CBC9C1"/>
<path d="M14.6947 19.2168H5.29215C5.07578 19.2168 4.90039 19.3922 4.90039 19.6086C4.90039 19.8249 5.07578 20.0003 5.29215 20.0003H14.6947C14.9111 20.0003 15.0864 19.8249 15.0864 19.6086C15.0865 19.3922 14.9111 19.2168 14.6947 19.2168Z" fill="#CBC9C1"/>
<path d="M12.4289 4.99902H12.4211C12.2047 4.99902 12.0293 5.17441 12.0293 5.39078C12.0293 5.60715 12.2047 5.78254 12.4211 5.78254H12.4289C12.6453 5.78254 12.8207 5.60715 12.8207 5.39078C12.8207 5.17441 12.6453 4.99902 12.4289 4.99902Z" fill="#CBC9C1"/>
</g>
<defs>
<clipPath id="clip0_2_6236">
<rect width="20" height="20" fill="white"/>
</clipPath>
</defs>
</svg>
