<svg width="15" height="16" viewBox="0 0 15 16" fill="none" xmlns="http://www.w3.org/2000/svg">
<path d="M1.00111 7L0.00115701 6.99003L-0.00105759 8.99003L0.998893 9L1.00111 7ZM14.6991 8.84367C15.09 8.45703 15.0907 7.82387 14.7007 7.42945L8.34406 1.00206C7.95399 0.607647 7.32086 0.601336 6.92992 0.987967C6.53898 1.3746 6.53828 2.00776 6.92835 2.40218L12.5787 8.11541L6.91582 13.7159C6.52489 14.1025 6.52419 14.7357 6.91426 15.1301C7.30433 15.5245 7.93746 15.5308 8.3284 15.1442L14.6991 8.84367ZM0.998893 9L13.9917 9.12951L13.9939 7.12951L1.00111 7L0.998893 9Z" fill="#E7B960"/>
</svg>
