<svg width="22" height="22" viewBox="0 0 22 22" fill="none" xmlns="http://www.w3.org/2000/svg">
<path fill-rule="evenodd" clip-rule="evenodd" d="M9.89001 1.375C9.42727 1.375 9.03786 1.69401 8.92142 2.12094L8.9196 2.12765L8.52365 3.77464C8.48744 3.92528 8.36806 4.06348 8.18916 4.13495C8.13738 4.15564 8.08579 4.17694 8.03442 4.19883C7.86036 4.27301 7.68139 4.26053 7.55042 4.18194L6.16192 3.34884C5.77122 3.11443 5.27101 3.16871 4.94675 3.49297L3.42135 5.01836C3.09709 5.34262 3.04281 5.84284 3.27723 6.23354L4.11033 7.62203C4.18891 7.753 4.20139 7.93198 4.12722 8.10604C4.10426 8.15992 4.08195 8.21403 4.06031 8.26837C3.99 8.44493 3.85464 8.56355 3.70639 8.60118L2.13347 9.00052C1.68997 9.1045 1.375 9.50473 1.375 9.9616V12.11C1.375 12.5669 1.68996 12.9671 2.13344 13.0711L3.70639 13.4704C3.85464 13.5081 3.99 13.6267 4.06031 13.8033C4.08195 13.8576 4.10426 13.9117 4.12722 13.9656C4.20139 14.1397 4.18891 14.3186 4.11033 14.4496L3.27723 15.8381C3.04281 16.2288 3.09709 16.729 3.42135 17.0533L4.94675 18.5786C5.27101 18.903 5.77122 18.9572 6.16192 18.7227L7.55042 17.8897C7.68139 17.8111 7.86036 17.7986 8.03442 17.8728C8.08736 17.8954 8.1405 17.9173 8.19384 17.9385C8.3713 18.0093 8.49021 18.1457 8.52732 18.2949L8.91883 19.8691L8.92142 19.879C9.03786 20.306 9.42727 20.625 9.89001 20.625H12.0384C12.5011 20.625 12.8905 20.306 13.007 19.879L13.401 18.2949C13.4382 18.1457 13.557 18.0093 13.7345 17.9385C13.7879 17.9173 13.841 17.8954 13.894 17.8728C14.068 17.7986 14.247 17.8111 14.378 17.8897L15.7665 18.7227C16.1572 18.9572 16.6574 18.903 16.9816 18.5786L18.507 17.0533C18.8313 16.729 18.8855 16.2288 18.6511 15.8381L17.8181 14.4496C17.7395 14.3186 17.727 14.1396 17.8012 13.9656C17.8235 13.9133 17.8451 13.8607 17.8662 13.808C17.9372 13.63 18.0744 13.5108 18.2241 13.4741L19.8644 13.0716C20.309 12.9684 20.625 12.5676 20.625 12.11V9.9616C20.625 9.504 20.309 9.10327 19.8644 9.00004L18.2241 8.59749C18.0744 8.56073 17.9372 8.44163 17.8662 8.26361C17.8451 8.21087 17.8235 8.15833 17.8012 8.10603C17.727 7.93198 17.7395 7.753 17.8181 7.62203L18.6511 6.23354C18.8855 5.84284 18.8313 5.34263 18.507 5.01836L16.9816 3.49297C16.6574 3.16871 16.1572 3.11443 15.7665 3.34884L14.378 4.18194C14.247 4.26053 14.068 4.27301 13.894 4.19883C13.8426 4.17694 13.791 4.15564 13.7392 4.13495C13.5603 4.06348 13.4409 3.92528 13.4047 3.77464L13.0088 2.12765L13.007 2.12094C12.8905 1.69401 12.5011 1.375 12.0384 1.375H9.89001ZM9.4149 3.9889C9.30059 4.4644 8.94838 4.81874 8.52926 4.98619C8.48393 5.0043 8.43877 5.02295 8.39378 5.04213C7.98396 5.21676 7.49205 5.21592 7.07879 4.96798L5.6903 4.13488C5.65131 4.11148 5.61441 4.12166 5.59492 4.14115L4.06953 5.66654C4.05004 5.68603 4.03987 5.72292 4.06326 5.76191L4.89637 7.15041C5.14431 7.56366 5.14514 8.05558 4.97051 8.46539C4.95039 8.51259 4.93087 8.55996 4.91193 8.60753C4.74705 9.02154 4.39982 9.3709 3.93196 9.4897L2.34315 9.89303C2.33129 9.89569 2.31838 9.90293 2.30774 9.91632C2.29719 9.92961 2.29167 9.94538 2.29167 9.9616V12.11C2.29167 12.1262 2.29719 12.1421 2.30774 12.1553C2.31838 12.1687 2.33126 12.176 2.34311 12.1787L2.35436 12.1813L3.93195 12.582C4.39982 12.7007 4.74705 13.05 4.91193 13.4641C4.93087 13.5117 4.95039 13.5591 4.97051 13.6062C5.14514 14.016 5.14431 14.508 4.89637 14.9212L4.06326 16.3097C4.03987 16.3487 4.05004 16.3856 4.06953 16.405L5.59492 17.9305C5.61441 17.95 5.65131 17.9602 5.69029 17.9367L7.07879 17.1036C7.49205 16.8557 7.98396 16.8548 8.39378 17.0295C8.44011 17.0493 8.48665 17.0684 8.53338 17.087C8.94934 17.253 9.29977 17.6028 9.41692 18.0736L9.80668 19.6409C9.82007 19.6847 9.8593 19.7083 9.89001 19.7083H12.0384C12.0691 19.7083 12.1083 19.6847 12.1217 19.6409L12.5115 18.0736C12.5973 17.7285 12.8086 17.4484 13.0791 17.258C13.1776 17.1887 13.284 17.1313 13.395 17.087C13.4417 17.0684 13.4883 17.0493 13.5346 17.0295C13.5619 17.0178 13.5895 17.007 13.6175 16.9969C14.0096 16.856 14.4638 16.8722 14.8496 17.1036L16.2381 17.9367C16.2771 17.9602 16.314 17.95 16.3334 17.9305L17.8589 16.405C17.8783 16.3856 17.8885 16.3487 17.8651 16.3097L17.032 14.9212C16.7841 14.508 16.7833 14.016 16.9579 13.6063C16.9774 13.5604 16.9964 13.5144 17.0148 13.4682C17.1813 13.051 17.533 12.6999 18.0056 12.5839L19.6569 12.1786C19.6687 12.176 19.6817 12.1687 19.6923 12.1553C19.7028 12.1421 19.7083 12.1262 19.7083 12.11V9.9616C19.7083 9.94538 19.7028 9.92961 19.6923 9.91632C19.6817 9.90293 19.6687 9.8956 19.6569 9.89294L19.6492 9.89111L18.0056 9.48777C17.533 9.37173 17.1813 9.02058 17.0148 8.60336C16.9964 8.55719 16.9774 8.5112 16.9579 8.46539C16.7833 8.05558 16.7841 7.56366 17.032 7.15041L17.8651 5.76191C17.8885 5.72292 17.8783 5.68602 17.8589 5.66654L16.3334 4.14115C16.314 4.12166 16.2771 4.11148 16.2381 4.13488L14.8496 4.96798C14.4363 5.21593 13.9444 5.21676 13.5346 5.04213C13.4896 5.02295 13.4445 5.0043 13.3991 4.9862C12.98 4.81874 12.6277 4.4644 12.5134 3.9889L12.1215 2.35813C12.1077 2.31496 12.0689 2.29167 12.0384 2.29167H9.89001C9.85948 2.29167 9.82062 2.31496 9.80696 2.35813L9.4149 3.9889Z" fill="#CBC9C1"/>
<path fill-rule="evenodd" clip-rule="evenodd" d="M11.0003 7.10449C12.1271 7.10449 13.0406 8.0165 13.0406 9.14153C13.0406 9.73193 12.789 10.2636 12.3872 10.6357C12.4366 10.6561 12.4852 10.6769 12.533 10.698C13.7478 11.235 14.397 12.4423 14.5971 13.6407C14.7068 14.2979 14.1991 14.8962 13.5318 14.8962H8.46888C7.80154 14.8962 7.29393 14.2979 7.40363 13.6407C7.60368 12.4423 8.25291 11.235 9.46767 10.698C9.51543 10.6769 9.56411 10.6561 9.61351 10.6357C9.21165 10.2636 8.9601 9.73193 8.9601 9.14153C8.9601 8.0165 9.87357 7.10449 11.0003 7.10449ZM11.0003 10.2619C11.6201 10.2619 12.1224 9.76026 12.1224 9.14153C12.1224 8.52277 11.6201 8.02116 11.0003 8.02116C10.3806 8.02116 9.87825 8.52277 9.87825 9.14153C9.87825 9.76026 10.3806 10.2619 11.0003 10.2619ZM11.0003 11.2295C10.6695 11.2295 10.2603 11.3501 9.83938 11.5362C9.0016 11.9065 8.47823 12.779 8.30925 13.7914C8.29281 13.8898 8.36887 13.9795 8.46888 13.9795H13.5318C13.6318 13.9795 13.7079 13.8898 13.6914 13.7914C13.5225 12.779 12.999 11.9065 12.1613 11.5362C11.7404 11.3501 11.3312 11.2295 11.0003 11.2295Z" fill="#CBC9C1"/>
</svg>
