<svg width="46" height="46" viewBox="0 0 46 46" fill="none" xmlns="http://www.w3.org/2000/svg">
<path d="M14.0051 40.4712C13.1967 40.4712 12.5154 40.1942 11.9613 39.64C11.4071 39.0859 11.1301 38.4046 11.1301 37.5962C11.1301 36.7878 11.4071 36.1065 11.9613 35.5524C12.5154 34.9983 13.1967 34.7212 14.0051 34.7212C14.8135 34.7212 15.4948 34.9983 16.049 35.5524C16.6031 36.1065 16.8801 36.7878 16.8801 37.5962C16.8801 38.4046 16.6031 39.0859 16.049 39.64C15.4948 40.1942 14.8135 40.4712 14.0051 40.4712ZM31.9923 40.4712C31.1839 40.4712 30.5026 40.1942 29.9484 39.64C29.3943 39.0859 29.1173 38.4046 29.1173 37.5962C29.1173 36.7878 29.3943 36.1065 29.9484 35.5524C30.5026 34.9983 31.1839 34.7212 31.9923 34.7212C32.8007 34.7212 33.482 34.9983 34.0361 35.5524C34.5903 36.1065 34.8673 36.7878 34.8673 37.5962C34.8673 38.4046 34.5903 39.0859 34.0361 39.64C33.482 40.1942 32.8007 40.4712 31.9923 40.4712ZM11.2702 10.5417L16.3862 21.3045H29.1026C29.3237 21.3045 29.5203 21.2492 29.6923 21.1387C29.8643 21.0281 30.0117 20.8745 30.1346 20.678L35.1474 11.5737C35.2949 11.3035 35.3071 11.0639 35.1843 10.855C35.0614 10.6462 34.8526 10.5417 34.5577 10.5417H11.2702ZM10.3339 8.62504H35.2875C36.1205 8.62504 36.7471 8.96476 37.1673 9.64418C37.5875 10.3236 37.6096 11.0233 37.2336 11.7433L31.7564 21.7247C31.4787 22.1916 31.1181 22.5577 30.6746 22.8231C30.2311 23.0885 29.7439 23.2212 29.2131 23.2212H15.5237L13.1942 27.4968C12.9976 27.7917 12.9915 28.1112 13.1758 28.4552C13.3601 28.7992 13.6365 28.9712 14.0051 28.9712H33.9089C34.1817 28.9712 34.4096 29.0627 34.5927 29.2458C34.7758 29.4289 34.8673 29.6568 34.8673 29.9295C34.8673 30.2023 34.7758 30.4302 34.5927 30.6133C34.4096 30.7964 34.1817 30.8879 33.9089 30.8879H14.0051C12.8871 30.8879 12.0528 30.4167 11.5024 29.4744C10.952 28.532 10.9384 27.5853 11.4619 26.6343L14.3442 21.4962L7.29674 6.70838H4.79036C4.51759 6.70838 4.28967 6.61684 4.10659 6.43377C3.92355 6.25072 3.83203 6.02282 3.83203 5.75004C3.83203 5.47727 3.92355 5.24936 4.10659 5.06632C4.2897 4.88325 4.51762 4.79171 4.79036 4.79171H7.53637C7.8386 4.79171 8.11257 4.86911 8.35829 5.02391C8.60404 5.17872 8.79449 5.39497 8.92965 5.67266L10.3339 8.62504Z" fill="#D1A757"/>
</svg>
