<svg width="18" height="18" viewBox="0 0 18 18" fill="none" xmlns="http://www.w3.org/2000/svg">
<circle cx="9" cy="9" r="9" fill="#E08646"/>
<path d="M8.605 4.523H10.165V5.966L10.035 11.075H8.735L8.605 5.966V4.523ZM8.436 13.142C8.436 13.402 8.527 13.623 8.709 13.805C8.891 13.987 9.125 14.078 9.385 14.078C9.645 14.078 9.866 13.987 10.048 13.805C10.23 13.623 10.334 13.402 10.334 13.142C10.334 12.869 10.23 12.648 10.048 12.466C9.866 12.284 9.645 12.18 9.385 12.18C9.125 12.18 8.891 12.284 8.709 12.466C8.527 12.648 8.436 12.882 8.436 13.142Z" fill="white"/>
</svg>
